# xmcd
#
# Track frame offsets:
#	150
#	19982
#	41857
#	59972
#	81829
#	105127
#	125302
#	142735
#	161033
#	184510
#
# Disc length: 2774 seconds
#
# Revision: 1
# Processed by: cddbd v1.5.1PL0 Copyright (c) Steve Scherf et al.
# Submitted via: audiograbber 1.83.01
#
DISCID=810ad40a
DTITLE=Julian Petrin - From South To Central
DYEAR=2003
DGENRE=
TTITLE0=La Pluie Dans Tes Yeux
TTITLE1=The Great Plains
TTITLE2=From South To Central
TTITLE3=By Your Side
TTITLE4=Boulevard Peripherique
TTITLE5=Embrace
TTITLE6=King And Commuter
TTITLE7=Park Transit
TTITLE8=Ocean
TTITLE9=Reflections
EXTD=
EXTT0=
EXTT1=
EXTT2=
EXTT3=
EXTT4=
EXTT5=
EXTT6=
EXTT7=
EXTT8=
EXTT9=
PLAYORDER=
